<svg 
 xmlns="http://www.w3.org/2000/svg"
 xmlns:xlink="http://www.w3.org/1999/xlink"
 width="78px" height="58px">
<path fill-rule="evenodd"  fill="rgb(255, 196, 0)"
 d="M76.680,41.715 C75.145,38.317 71.150,36.807 67.751,38.342 C66.119,39.79 64.929,40.387 64.296,41.920 L41.82,33.151 C41.498,31.349 41.359,29.405 40.538,27.590 C39.223,24.675 36.508,22.843 33.547,22.505 L33.718,13.615 C34.363,13.532 35.5,13.355 35.628,13.74 C39.27,11.540 40.536,7.543 39.1,4.144 C37.466,0.745 33.470,0.763 30.72,0.770 C26.675,2.305 25.163,6.302 26.699,9.701 C27.659,11.827 29.582,13.212 31.720,13.578 L31.549,22.500 C30.677,22.602 29.807,22.836 28.964,23.216 C24.558,25.207 22.602,30.387 24.589,34.793 C24.722,35.87 24.872,35.368 25.33,35.640 L12.169,45.790 C10.240,43.911 7.288,43.293 4.684,44.470 C1.287,46.4 0.222,50.0 1.312,53.398 C2.846,56.796 6.842,58.305 10.241,56.774 C13.638,55.236 15.147,51.241 13.613,47.842 C13.541,47.685 13.458,47.536 13.378,47.386 L26.245,37.233 C28.740,39.840 32.691,40.734 36.166,39.165 C38.98,38.292 39.558,36.805 40.421,35.40 L63.812,43.874 C63.707,45.0 63.879,46.167 64.378,47.272 C65.912,50.668 69.911,52.179 73.307,50.645 C76.706,49.110 78.214,45.112 76.680,41.715 ZM35.343,37.341 C31.943,38.870 27.953,37.365 26.414,33.969 C24.883,30.570 26.392,26.581 29.787,25.40 C33.187,23.511 37.175,25.18 38.716,28.412 C40.245,31.813 38.738,35.801 35.343,37.341 Z"/>
</svg>